<svg viewBox="0 0 100 100" xmlns="http://www.w3.org/2000/svg">
  <defs>
    <linearGradient id="logoGradient" x1="0%" y1="0%" x2="100%" y2="100%">
      <stop offset="0%" stop-color="#ff0040" />
      <stop offset="100%" stop-color="#be123c" />
    </linearGradient>
    <linearGradient id="frameGradient" x1="0%" y1="0%" x2="100%" y2="100%">
      <stop offset="0%" stop-color="white" stop-opacity="0.6" />
      <stop offset="100%" stop-color="white" stop-opacity="0.2" />
    </linearGradient>
  </defs>
  
  <rect 
    x="12" y="12" 
    width="76" height="76" 
    rx="8" ry="8"
    fill="none" 
    stroke="url(#frameGradient)" 
    stroke-width="3"
  />
  
  <rect 
    x="22" y="22" 
    width="56" height="56" 
    rx="4" ry="4"
    fill="none" 
    stroke="#ff0040" 
    stroke-width="2.5"
    stroke-opacity="0.8"
  />
  
  <line x1="50" y1="12" x2="50" y2="22" stroke="white" stroke-width="2" stroke-opacity="0.4" />
  <line x1="50" y1="78" x2="50" y2="88" stroke="white" stroke-width="2" stroke-opacity="0.4" />
  <line x1="12" y1="50" x2="22" y2="50" stroke="white" stroke-width="2" stroke-opacity="0.4" />
  <line x1="78" y1="50" x2="88" y2="50" stroke="white" stroke-width="2" stroke-opacity="0.4" />
  
  <circle cx="35" cy="38" r="6" fill="#ff0040" opacity="0.9" />
  <circle cx="35" cy="38" r="2.5" fill="white" opacity="0.8" />
  
  <path 
    d="M26 68 L40 50 L52 60 L74 32" 
    fill="none" 
    stroke="white" 
    stroke-width="3.5" 
    stroke-linecap="round" 
    stroke-linejoin="round"
    opacity="0.9"
  />
  
  <path 
    d="M26 68 L40 50 L52 60 L74 32 L74 68 Z" 
    fill="#ff0040" 
    opacity="0.25"
  />
</svg>