<svg viewBox="0 0 180 180" xmlns="http://www.w3.org/2000/svg">
  <defs>
    <linearGradient id="frameGradient" x1="0%" y1="0%" x2="100%" y2="100%">
      <stop offset="0%" stop-color="white" stop-opacity="0.6" />
      <stop offset="100%" stop-color="white" stop-opacity="0.2" />
    </linearGradient>
    <linearGradient id="bgGradient" x1="0%" y1="0%" x2="100%" y2="100%">
      <stop offset="0%" stop-color="#ff0040" stop-opacity="0.2" />
      <stop offset="100%" stop-color="#be123c" stop-opacity="0.1" />
    </linearGradient>
  </defs>
  
  <rect width="180" height="180" rx="40" fill="#0a0a0b" />
  <rect width="180" height="180" rx="40" fill="url(#bgGradient)" />
  
  <rect 
    x="22" y="22" 
    width="136" height="136" 
    rx="14" ry="14"
    fill="none" 
    stroke="url(#frameGradient)" 
    stroke-width="5"
  />
  
  <rect 
    x="40" y="40" 
    width="100" height="100" 
    rx="7" ry="7"
    fill="none" 
    stroke="#ff0040" 
    stroke-width="4.5"
    stroke-opacity="0.8"
  />
  
  <line x1="90" y1="22" x2="90" y2="40" stroke="white" stroke-width="4" stroke-opacity="0.4" />
  <line x1="90" y1="140" x2="90" y2="158" stroke="white" stroke-width="4" stroke-opacity="0.4" />
  <line x1="22" y1="90" x2="40" y2="90" stroke="white" stroke-width="4" stroke-opacity="0.4" />
  <line x1="140" y1="90" x2="158" y2="90" stroke="white" stroke-width="4" stroke-opacity="0.4" />
  
  <circle cx="63" cy="68" r="11" fill="#ff0040" opacity="0.9" />
  <circle cx="63" cy="68" r="4.5" fill="white" opacity="0.8" />
  
  <path 
    d="M47 122 L72 90 L94 108 L133 58" 
    fill="none" 
    stroke="white" 
    stroke-width="6" 
    stroke-linecap="round" 
    stroke-linejoin="round"
    opacity="0.9"
  />
  
  <path 
    d="M47 122 L72 90 L94 108 L133 58 L133 122 Z" 
    fill="#ff0040" 
    opacity="0.25"
  />
</svg>