<svg viewBox="0 0 192 192" xmlns="http://www.w3.org/2000/svg">
  <defs>
    <linearGradient id="frameGradient" x1="0%" y1="0%" x2="100%" y2="100%">
      <stop offset="0%" stop-color="white" stop-opacity="0.6" />
      <stop offset="100%" stop-color="white" stop-opacity="0.2" />
    </linearGradient>
    <linearGradient id="bgGradient" x1="0%" y1="0%" x2="100%" y2="100%">
      <stop offset="0%" stop-color="#ff0040" stop-opacity="0.2" />
      <stop offset="100%" stop-color="#be123c" stop-opacity="0.1" />
    </linearGradient>
  </defs>
  
  <rect width="192" height="192" rx="32" fill="#0a0a0b" />
  <rect width="192" height="192" rx="32" fill="url(#bgGradient)" />
  
  <rect 
    x="23" y="23" 
    width="146" height="146" 
    rx="15" ry="15"
    fill="none" 
    stroke="url(#frameGradient)" 
    stroke-width="5"
  />
  
  <rect 
    x="42" y="42" 
    width="108" height="108" 
    rx="8" ry="8"
    fill="none" 
    stroke="#ff0040" 
    stroke-width="5"
    stroke-opacity="0.8"
  />
  
  <line x1="96" y1="23" x2="96" y2="42" stroke="white" stroke-width="4" stroke-opacity="0.4" />
  <line x1="96" y1="150" x2="96" y2="169" stroke="white" stroke-width="4" stroke-opacity="0.4" />
  <line x1="23" y1="96" x2="42" y2="96" stroke="white" stroke-width="4" stroke-opacity="0.4" />
  <line x1="150" y1="96" x2="169" y2="96" stroke="white" stroke-width="4" stroke-opacity="0.4" />
  
  <circle cx="67" cy="73" r="12" fill="#ff0040" opacity="0.9" />
  <circle cx="67" cy="73" r="5" fill="white" opacity="0.8" />
  
  <path 
    d="M50 130 L77 96 L100 115 L142 62" 
    fill="none" 
    stroke="white" 
    stroke-width="7" 
    stroke-linecap="round" 
    stroke-linejoin="round"
    opacity="0.9"
  />
  
  <path 
    d="M50 130 L77 96 L100 115 L142 62 L142 130 Z" 
    fill="#ff0040" 
    opacity="0.25"
  />
</svg>